<svg width="102" height="36" viewBox="0 0 102 36" fill="none" xmlns="http://www.w3.org/2000/svg">
<path d="M1.23 6H10.23V9H4.53V14.55H9.06V17.55H4.53V24H10.23V27H1.23V6ZM12.1284 6H17.1684C18.8084 6 20.0384 6.44 20.8584 7.32C21.6784 8.2 22.0884 9.49 22.0884 11.19V21.81C22.0884 23.51 21.6784 24.8 20.8584 25.68C20.0384 26.56 18.8084 27 17.1684 27H12.1284V6ZM17.1084 24C17.6484 24 18.0584 23.84 18.3384 23.52C18.6384 23.2 18.7884 22.68 18.7884 21.96V11.04C18.7884 10.32 18.6384 9.8 18.3384 9.48C18.0584 9.16 17.6484 9 17.1084 9H15.4284V24H17.1084ZM29.1159 27.3C27.5159 27.3 26.2959 26.85 25.4559 25.95C24.6159 25.03 24.1959 23.72 24.1959 22.02V6H27.4959V22.26C27.4959 22.98 27.6359 23.5 27.9159 23.82C28.2159 24.14 28.6359 24.3 29.1759 24.3C29.7159 24.3 30.1259 24.14 30.4059 23.82C30.7059 23.5 30.8559 22.98 30.8559 22.26V6H34.0359V22.02C34.0359 23.72 33.6159 25.03 32.7759 25.95C31.9359 26.85 30.7159 27.3 29.1159 27.3ZM40.6763 27.3C39.0763 27.3 37.8663 26.85 37.0463 25.95C36.2263 25.03 35.8163 23.72 35.8163 22.02V20.82H38.9363V22.26C38.9363 23.62 39.5063 24.3 40.6463 24.3C41.2063 24.3 41.6263 24.14 41.9063 23.82C42.2063 23.48 42.3563 22.94 42.3563 22.2C42.3563 21.32 42.1563 20.55 41.7563 19.89C41.3563 19.21 40.6163 18.4 39.5363 17.46C38.1763 16.26 37.2263 15.18 36.6863 14.22C36.1463 13.24 35.8763 12.14 35.8763 10.92C35.8763 9.26 36.2963 7.98 37.1362 7.08C37.9763 6.16 39.1963 5.7 40.7963 5.7C42.3763 5.7 43.5663 6.16 44.3663 7.08C45.1863 7.98 45.5963 9.28 45.5963 10.98V11.85H42.4763V10.77C42.4763 10.05 42.3363 9.53 42.0563 9.21C41.7763 8.87 41.3663 8.7 40.8263 8.7C39.7263 8.7 39.1763 9.37 39.1763 10.71C39.1763 11.47 39.3763 12.18 39.7763 12.84C40.1963 13.5 40.9463 14.3 42.0263 15.24C43.4063 16.44 44.3563 17.53 44.8763 18.51C45.3963 19.49 45.6563 20.64 45.6563 21.96C45.6563 23.68 45.2263 25 44.3663 25.92C43.5263 26.84 42.2963 27.3 40.6763 27.3ZM47.5484 6H50.8484V27H47.5484V6ZM57.6098 27.3C56.0098 27.3 54.7998 26.85 53.9798 25.95C53.1598 25.03 52.7498 23.72 52.7498 22.02V20.82H55.8698V22.26C55.8698 23.62 56.4398 24.3 57.5798 24.3C58.1398 24.3 58.5598 24.14 58.8398 23.82C59.1398 23.48 59.2898 22.94 59.2898 22.2C59.2898 21.32 59.0898 20.55 58.6898 19.89C58.2898 19.21 57.5498 18.4 56.4698 17.46C55.1098 16.26 54.1598 15.18 53.6198 14.22C53.0798 13.24 52.8098 12.14 52.8098 10.92C52.8098 9.26 53.2298 7.98 54.0698 7.08C54.9098 6.16 56.1298 5.7 57.7298 5.7C59.3098 5.7 60.4998 6.16 61.2998 7.08C62.1198 7.98 62.5298 9.28 62.5298 10.98V11.85H59.4098V10.77C59.4098 10.05 59.2698 9.53 58.9898 9.21C58.7098 8.87 58.2998 8.7 57.7598 8.7C56.6598 8.7 56.1098 9.37 56.1098 10.71C56.1098 11.47 56.3098 12.18 56.7098 12.84C57.1298 13.5 57.8798 14.3 58.9598 15.24C60.3398 16.44 61.2898 17.53 61.8098 18.51C62.3298 19.49 62.5898 20.64 62.5898 21.96C62.5898 23.68 62.1598 25 61.2998 25.92C60.4598 26.84 59.2298 27.3 57.6098 27.3ZM67.062 9H63.612V6H73.812V9H70.362V27H67.062V9ZM75.4097 6H84.4097V9H78.7097V14.55H83.2397V17.55H78.7097V24H84.4097V27H75.4097V6ZM86.3081 6H91.0181L93.1181 21.03H93.1781L95.2781 6H99.9881V27H96.8681V11.1H96.8081L94.4081 27H91.6481L89.2481 11.1H89.1881V27H86.3081V6Z" fill="#5F84E9"/>
<rect y="18" width="102" height="18" fill="#5F84E9" fill-opacity="0.16"/>
</svg>
